# xmcd
#
# Track frame offsets:
#	150
#	14388
#	38151
#	51689
#	70582
#	86205
#	105682
#	123640
#	146437
#	167434
#	185478
#	199262
#	221500
#	240823
#	251988
#
# Disc length: 3582 seconds
#
# Revision: 0
# Processed by: cddbd v1.5.1PL0 Copyright (c) Steve Scherf et al.
# Submitted via: audiograbber 1.83.01
#
DISCID=d90dfc0f
DTITLE=Various Artist - SC8867
DYEAR=1900
DGENRE=KARAOKE
TTITLE0=Brooks and Dunn  - That's What She Gets For Loving Me
TTITLE1=Kenny and Uncle Kracker Chesney - When The Sun Goes Down
TTITLE2=Johnny and Fiona Apple Cash - Father and Son
TTITLE3=Toby Keith - Critic, The
TTITLE4=Billy Currington - I Got A Feelin'
TTITLE5=Sherrie Austin - Drivin' Into The Sun
TTITLE6=Tracy Lawrence - Paint Me A Birmingham
TTITLE7=Shania Twain - Forever and For Always
TTITLE8=John Michael Montgomery - Letters From Home
TTITLE9=Diamond Rio - We All Fall Down
TTITLE10=Martina McBride - Wearing White
TTITLE11=Rascal Flatts - Mayberry
TTITLE12=George Strait - Desperately
TTITLE13=George Strait - Honk If You Honky Tonk
TTITLE14=Shania Twain - It Only Hurts When I'm Breathing
EXTD=
EXTT0=
EXTT1=
EXTT2=
EXTT3=
EXTT4=
EXTT5=
EXTT6=
EXTT7=
EXTT8=
EXTT9=
EXTT10=
EXTT11=
EXTT12=
EXTT13=
EXTT14=
PLAYORDER=
